<svg xmlns="http://www.w3.org/2000/svg" viewBox="0 0 287.49 65.3">
      <defs>
        <style>
          .cls-1 {
            fill: none;
            stroke: #dfb2f4;
            stroke-miterlimit: 10;
          }
        </style>
      </defs>
      <g id="Layer_2" data-name="Layer 2">
        <g id="Layer_1-2" data-name="Layer 1">
          <path
            class="cls-1"
            d="M.5,64.3V55.22a13.66,13.66,0,0,0,1.8.15c2.66,0,4.1-1.23,4.1-4.61V14.11H20V51.34C20,61.2,15,64.8,6.19,64.8A33,33,0,0,1,.5,64.3ZM6.12.5H20.3V10.58H6.12Z"
          />
          <path
            class="cls-1"
            d="M18.07,33.77v-.15c0-11.16,9.07-20.37,21.53-20.37s21.46,9.14,21.46,20.23v.14C61.06,44.78,51.91,54,39.45,54S18.07,44.93,18.07,33.77Zm29.74,0v-.15c0-4.82-3.46-8.85-8.36-8.85s-8.13,3.88-8.13,8.71v.14c0,4.76,3.45,8.79,8.28,8.79S47.81,38.45,47.81,33.77Z"
          />
          <path
            class="cls-1"
            d="M72.14.5H85.82V19.44c2.52-3.24,6.12-6.19,11.66-6.19,8.36,0,13.25,5.4,13.25,14.32V53.06H97.12V32c0-4.32-2.16-6.63-5.54-6.63S85.82,27.65,85.82,32V53.06H72.14Z"
          />
          <path
            class="cls-1"
            d="M108.14,33.77v-.15c0-11.16,9.07-20.37,21.53-20.37s21.45,9.14,21.45,20.23v.14C151.12,44.78,142,54,129.52,54S108.14,44.93,108.14,33.77Zm29.74,0v-.15c0-4.82-3.46-8.85-8.36-8.85s-8.13,3.88-8.13,8.71v.14c0,4.76,3.45,8.79,8.28,8.79S137.88,38.45,137.88,33.77Z"
          />
          <path
            class="cls-1"
            d="M147.23,33.77v-.15c0-11.16,9.08-20.37,21.53-20.37s21.46,9.14,21.46,20.23v.14c0,11.16-9.14,20.38-21.6,20.38S147.23,44.93,147.23,33.77Zm29.74,0v-.15c0-4.82-3.45-8.85-8.35-8.85s-8.14,3.88-8.14,8.71v.14c0,4.76,3.46,8.79,8.28,8.79C173.73,42.41,177,38.45,177,33.77Z"
          />
          <path
            class="cls-1"
            d="M189.93,41V25.05h-4.61V14.11h4.61V4.24h13.61v9.87h9.07V25.05h-9.07V38.3c0,2.81,1.22,3.89,3.74,3.89a12.06,12.06,0,0,0,5.19-1.29V51.55A19.7,19.7,0,0,1,203,53.86C194.68,53.86,189.93,50.26,189.93,41Z"
          />
          <path
            class="cls-1"
            d="M207.78,33.77v-.15c0-11.16,9.08-20.37,21.53-20.37s21.46,9.14,21.46,20.23v.14c0,11.16-9.14,20.38-21.6,20.38S207.78,44.93,207.78,33.77Zm29.74,0v-.15c0-4.82-3.45-8.85-8.35-8.85S221,28.65,221,33.48v.14c0,4.76,3.46,8.79,8.28,8.79C234.28,42.41,237.52,38.45,237.52,33.77Z"
          />
          <path
            class="cls-1"
            d="M248.39,14.11h13.68v5.47c2.52-3.24,6.12-6.33,11.67-6.33,8.35,0,13.25,5.4,13.25,14.32V53.06H273.38V32c0-4.32-2.16-6.63-5.55-6.63s-5.76,2.31-5.76,6.63V53.06H248.39Z"
          />
        </g>
      </g>
    </svg>
    <svg xmlns="http://www.w3.org/2000/svg" viewBox="0 0 287.49 65.3">
      <defs>
        <style>
          .cls-1 {
            fill: none;
            stroke: #dfb2f4;
            stroke-miterlimit: 10;
          }
        </style>
      </defs>
      <g id="Layer_2" data-name="Layer 2">
        <g id="Layer_1-2" data-name="Layer 1">
          <path
            class="cls-1"
            d="M.5,64.3V55.22a13.66,13.66,0,0,0,1.8.15c2.66,0,4.1-1.23,4.1-4.61V14.11H20V51.34C20,61.2,15,64.8,6.19,64.8A33,33,0,0,1,.5,64.3ZM6.12.5H20.3V10.58H6.12Z"
          />
          <path
            class="cls-1"
            d="M18.07,33.77v-.15c0-11.16,9.07-20.37,21.53-20.37s21.46,9.14,21.46,20.23v.14C61.06,44.78,51.91,54,39.45,54S18.07,44.93,18.07,33.77Zm29.74,0v-.15c0-4.82-3.46-8.85-8.36-8.85s-8.13,3.88-8.13,8.71v.14c0,4.76,3.45,8.79,8.28,8.79S47.81,38.45,47.81,33.77Z"
          />
          <path
            class="cls-1"
            d="M72.14.5H85.82V19.44c2.52-3.24,6.12-6.19,11.66-6.19,8.36,0,13.25,5.4,13.25,14.32V53.06H97.12V32c0-4.32-2.16-6.63-5.54-6.63S85.82,27.65,85.82,32V53.06H72.14Z"
          />
          <path
            class="cls-1"
            d="M108.14,33.77v-.15c0-11.16,9.07-20.37,21.53-20.37s21.45,9.14,21.45,20.23v.14C151.12,44.78,142,54,129.52,54S108.14,44.93,108.14,33.77Zm29.74,0v-.15c0-4.82-3.46-8.85-8.36-8.85s-8.13,3.88-8.13,8.71v.14c0,4.76,3.45,8.79,8.28,8.79S137.88,38.45,137.88,33.77Z"
          />
          <path
            class="cls-1"
            d="M147.23,33.77v-.15c0-11.16,9.08-20.37,21.53-20.37s21.46,9.14,21.46,20.23v.14c0,11.16-9.14,20.38-21.6,20.38S147.23,44.93,147.23,33.77Zm29.74,0v-.15c0-4.82-3.45-8.85-8.35-8.85s-8.14,3.88-8.14,8.71v.14c0,4.76,3.46,8.79,8.28,8.79C173.73,42.41,177,38.45,177,33.77Z"
          />
          <path
            class="cls-1"
            d="M189.93,41V25.05h-4.61V14.11h4.61V4.24h13.61v9.87h9.07V25.05h-9.07V38.3c0,2.81,1.22,3.89,3.74,3.89a12.06,12.06,0,0,0,5.19-1.29V51.55A19.7,19.7,0,0,1,203,53.86C194.68,53.86,189.93,50.26,189.93,41Z"
          />
          <path
            class="cls-1"
            d="M207.78,33.77v-.15c0-11.16,9.08-20.37,21.53-20.37s21.46,9.14,21.46,20.23v.14c0,11.16-9.14,20.38-21.6,20.38S207.78,44.93,207.78,33.77Zm29.74,0v-.15c0-4.82-3.45-8.85-8.35-8.85S221,28.65,221,33.48v.14c0,4.76,3.46,8.79,8.28,8.79C234.28,42.41,237.52,38.45,237.52,33.77Z"
          />
          <path
            class="cls-1"
            d="M248.39,14.11h13.68v5.47c2.52-3.24,6.12-6.33,11.67-6.33,8.35,0,13.25,5.4,13.25,14.32V53.06H273.38V32c0-4.32-2.16-6.63-5.55-6.63s-5.76,2.31-5.76,6.63V53.06H248.39Z"
          />
        </g>
      </g>
    </svg>