<svg
      id="pigwig"
      xmlns="http://www.w3.org/2000/svg"
      viewBox="0 0 258.2 73.96"
    >
      <defs>
        <style>
          .cls-1 {
            fill: none;
            stroke: #dfb2f4;
            stroke-miterlimit: 10;
          }
        </style>
      </defs>
      <g id="Layer_2" data-name="Layer 2">
        <g id="Layer_1-2" data-name="Layer 1">
          <path
            class="cls-1"
            d="M34.81,21.33a18.18,18.18,0,0,1,6.92,7.1,21.6,21.6,0,0,1,2.56,10.69A21.56,21.56,0,0,1,41.73,49.8a18.12,18.12,0,0,1-6.92,7.1,19.16,19.16,0,0,1-9.71,2.5q-6.85,0-10.89-4.13V72.81H.5V19.48H13.56V23.4q3.82-4.57,11.54-4.57A19.16,19.16,0,0,1,34.81,21.33ZM28.13,46a9.68,9.68,0,0,0,2.31-6.84,9.71,9.71,0,0,0-2.31-6.85,7.68,7.68,0,0,0-5.91-2.5,7.68,7.68,0,0,0-5.92,2.5A9.71,9.71,0,0,0,14,39.12,9.68,9.68,0,0,0,16.3,46a7.68,7.68,0,0,0,5.92,2.5A7.68,7.68,0,0,0,28.13,46Z"
          />
        </g>
      </g>
    </svg>